<svg xmlns="http://www.w3.org/2000/svg" viewBox="0 0 1100 640" font-family="-apple-system, BlinkMacSystemFont, 'PingFang SC', 'Microsoft YaHei', sans-serif">
  <!-- Title -->
  <text x="550" y="32" text-anchor="middle" font-size="18" font-weight="600" fill="#1a1a1a">五十年音频 Codec 大事记</text>
  <text x="550" y="54" text-anchor="middle" font-size="12" fill="#555">从 Atal &amp; Schroeder 的 LPC 论文，到 Opus 终结战争</text>

  <!-- Three category tracks -->
  <!-- Y positions for tracks -->
  <!-- Y=130: 语音 codec (CELP family) - blue -->
  <!-- Y=240: 音乐 codec (有损) - red -->
  <!-- Y=350: 影院 codec (surround) - dark gray -->
  <!-- Y=460: 无损 codec - green -->

  <!-- Horizontal timeline (main axis) -->
  <line x1="80" y1="560" x2="1050" y2="560" stroke="#1a1a1a" stroke-width="1.5"/>

  <!-- Year ticks -->
  <g font-size="10" fill="#666">
    <line x1="100" y1="555" x2="100" y2="565" stroke="#888" stroke-width="1"/>
    <text x="100" y="582" text-anchor="middle">1971</text>
    <line x1="200" y1="555" x2="200" y2="565" stroke="#888" stroke-width="1"/>
    <text x="200" y="582" text-anchor="middle">1980</text>
    <line x1="300" y1="555" x2="300" y2="565" stroke="#888" stroke-width="1"/>
    <text x="300" y="582" text-anchor="middle">1990</text>
    <line x1="500" y1="555" x2="500" y2="565" stroke="#888" stroke-width="1"/>
    <text x="500" y="582" text-anchor="middle">2000</text>
    <line x1="700" y1="555" x2="700" y2="565" stroke="#888" stroke-width="1"/>
    <text x="700" y="582" text-anchor="middle">2010</text>
    <line x1="900" y1="555" x2="900" y2="565" stroke="#888" stroke-width="1"/>
    <text x="900" y="582" text-anchor="middle">2020</text>
    <line x1="1020" y1="555" x2="1020" y2="565" stroke="#888" stroke-width="1"/>
    <text x="1020" y="582" text-anchor="middle">2026</text>
  </g>

  <!-- Track labels -->
  <text x="68" y="105" text-anchor="end" font-size="11" font-weight="600" fill="#1a1a1a">语音</text>
  <text x="68" y="118" text-anchor="end" font-size="9" fill="#888">CELP 一族</text>
  <text x="68" y="225" text-anchor="end" font-size="11" font-weight="600" fill="#1a1a1a">音乐</text>
  <text x="68" y="238" text-anchor="end" font-size="9" fill="#888">有损 / 心理声学</text>
  <text x="68" y="345" text-anchor="end" font-size="11" font-weight="600" fill="#1a1a1a">影院</text>
  <text x="68" y="358" text-anchor="end" font-size="9" fill="#888">环绕声</text>
  <text x="68" y="465" text-anchor="end" font-size="11" font-weight="600" fill="#1a1a1a">无损</text>
  <text x="68" y="478" text-anchor="end" font-size="9" fill="#888">FLAC / ALAC</text>

  <!-- Track 1: 语音 codec -->
  <line x1="80" y1="120" x2="1050" y2="120" stroke="#ddd" stroke-width="0.5" stroke-dasharray="2,2"/>

  <!-- LPC theory 1971 -->
  <circle cx="100" cy="120" r="5" fill="#1a1a1a"/>
  <text x="100" y="100" text-anchor="middle" font-size="10" fill="#1a1a1a" font-weight="600">LPC</text>
  <text x="100" y="142" text-anchor="middle" font-size="8" fill="#666">Atal &amp; Schroeder</text>

  <!-- G.711 1972 -->
  <circle cx="110" cy="120" r="5" fill="#888"/>
  <text x="115" y="158" text-anchor="middle" font-size="8" fill="#666">G.711</text>

  <!-- CELP 1985 -->
  <circle cx="245" cy="120" r="5" fill="#1a1a1a"/>
  <text x="245" y="100" text-anchor="middle" font-size="10" fill="#1a1a1a" font-weight="600">CELP</text>

  <!-- GSM-FR 1987 -->
  <circle cx="265" cy="120" r="5" fill="#888"/>
  <text x="265" y="142" text-anchor="middle" font-size="8" fill="#666">GSM</text>

  <!-- G.729 1996 -->
  <circle cx="370" cy="120" r="5" fill="#888"/>
  <text x="370" y="100" text-anchor="middle" font-size="9" fill="#666">G.729</text>

  <!-- SILK 2009 -->
  <circle cx="685" cy="120" r="5" fill="#c4453d"/>
  <text x="685" y="100" text-anchor="middle" font-size="10" fill="#c4453d" font-weight="600">SILK</text>
  <text x="685" y="142" text-anchor="middle" font-size="8" fill="#666">Skype · K. Vos</text>

  <!-- Track 2: 音乐 codec -->
  <line x1="80" y1="240" x2="1050" y2="240" stroke="#ddd" stroke-width="0.5" stroke-dasharray="2,2"/>

  <!-- MP3 standardized 1993 -->
  <circle cx="325" cy="240" r="6" fill="#c4453d"/>
  <text x="325" y="220" text-anchor="middle" font-size="11" font-weight="700" fill="#c4453d">MP3</text>
  <text x="325" y="262" text-anchor="middle" font-size="8" fill="#666">Brandenburg</text>

  <!-- l3enc 1994 -->
  <circle cx="335" cy="240" r="4" fill="#888"/>
  <text x="345" y="280" text-anchor="middle" font-size="8" fill="#666">l3enc</text>

  <!-- Winamp 1997 -->
  <circle cx="380" cy="240" r="5" fill="#1a1a1a"/>
  <text x="380" y="220" text-anchor="middle" font-size="9" font-weight="600" fill="#1a1a1a">Winamp</text>
  <text x="380" y="298" text-anchor="middle" font-size="8" fill="#666">Frankel</text>

  <!-- AAC standardized 1997 -->
  <circle cx="395" cy="240" r="5" fill="#c4453d"/>
  <text x="405" y="262" text-anchor="middle" font-size="9" fill="#c4453d" font-weight="600">AAC</text>

  <!-- LAME 1998 -->
  <circle cx="430" cy="240" r="4" fill="#888"/>
  <text x="430" y="278" text-anchor="middle" font-size="8" fill="#666">LAME</text>

  <!-- Napster 1999 -->
  <line x1="475" y1="200" x2="475" y2="240" stroke="#c4453d" stroke-width="1" stroke-dasharray="2,2"/>
  <text x="475" y="195" text-anchor="middle" font-size="10" font-weight="700" fill="#c4453d">Napster</text>

  <!-- Vorbis 2002 -->
  <circle cx="525" cy="240" r="5" fill="#1a1a1a"/>
  <text x="525" y="220" text-anchor="middle" font-size="9" fill="#1a1a1a">Vorbis</text>
  <text x="525" y="262" text-anchor="middle" font-size="8" fill="#666">Xiph · Monty</text>

  <!-- iTunes Store 2003 -->
  <line x1="555" y1="200" x2="555" y2="240" stroke="#1a1a1a" stroke-width="1" stroke-dasharray="2,2"/>
  <text x="555" y="195" text-anchor="middle" font-size="10" font-weight="700" fill="#1a1a1a">iTunes</text>

  <!-- CELT 2010 -->
  <circle cx="700" cy="240" r="5" fill="#c4453d"/>
  <text x="700" y="220" text-anchor="middle" font-size="9" fill="#c4453d">CELT</text>
  <text x="700" y="262" text-anchor="middle" font-size="8" fill="#666">Xiph · J-M Valin</text>

  <!-- Opus 2012 -->
  <circle cx="745" cy="240" r="8" fill="#c4453d"/>
  <text x="745" y="218" text-anchor="middle" font-size="13" font-weight="700" fill="#c4453d">OPUS</text>
  <text x="745" y="284" text-anchor="middle" font-size="9" fill="#c4453d" font-weight="600">RFC 6716 · 战争结束</text>

  <!-- MP3 patent expiration 2017 -->
  <line x1="820" y1="200" x2="820" y2="240" stroke="#888" stroke-width="1" stroke-dasharray="2,2"/>
  <text x="820" y="195" text-anchor="middle" font-size="9" fill="#888">MP3 专利到期</text>

  <!-- Track 3: 影院 codec -->
  <line x1="80" y1="360" x2="1050" y2="360" stroke="#ddd" stroke-width="0.5" stroke-dasharray="2,2"/>

  <!-- AC-3 / Dolby Digital 1991 -->
  <circle cx="305" cy="360" r="5" fill="#1a1a1a"/>
  <text x="305" y="340" text-anchor="middle" font-size="10" font-weight="600" fill="#1a1a1a">AC-3</text>
  <text x="305" y="382" text-anchor="middle" font-size="8" fill="#666">Dolby</text>

  <!-- DTS 1993 -->
  <circle cx="325" cy="360" r="5" fill="#1a1a1a"/>
  <text x="325" y="398" text-anchor="middle" font-size="10" font-weight="600" fill="#1a1a1a">DTS</text>
  <text x="325" y="416" text-anchor="middle" font-size="8" fill="#666">T. Beard</text>

  <!-- Dolby TrueHD / DTS-HD MA 2006 -->
  <circle cx="615" cy="360" r="4" fill="#888"/>
  <text x="615" y="340" text-anchor="middle" font-size="8" fill="#666">TrueHD / HD-MA</text>

  <!-- Atmos / DTS:X (object-based) 2012 -->
  <circle cx="745" cy="360" r="4" fill="#888"/>
  <text x="745" y="340" text-anchor="middle" font-size="9" fill="#666">Atmos / DTS:X</text>

  <!-- Track 4: 无损 codec -->
  <line x1="80" y1="480" x2="1050" y2="480" stroke="#ddd" stroke-width="0.5" stroke-dasharray="2,2"/>

  <!-- FLAC 2001 -->
  <circle cx="510" cy="480" r="5" fill="#1a1a1a"/>
  <text x="510" y="460" text-anchor="middle" font-size="10" font-weight="600" fill="#1a1a1a">FLAC</text>
  <text x="510" y="502" text-anchor="middle" font-size="8" fill="#666">Coalson</text>

  <!-- ALAC 2004 -->
  <circle cx="565" cy="480" r="5" fill="#1a1a1a"/>
  <text x="570" y="502" text-anchor="middle" font-size="9" fill="#1a1a1a">ALAC · Apple</text>

  <!-- Bottom annotation -->
  <text x="550" y="618" text-anchor="middle" font-size="11" fill="#444" font-style="italic">五十年里赢家不是技术最强的——是码本最干净、专利最少、装机量最大的那一份</text>
</svg>
